<svg xmlns="http://www.w3.org/2000/svg" enable-background="new 0 0 32 32" viewBox="0 0 32 32"><path fill="#374150" d="M10.219 20.767c-.188 0-.37-.101-.464-.278-.133-.256-.037-.572.219-.708 3.411-1.808 4.188-5.647 4.196-5.687.054-.284.329-.47.613-.416.285.055.47.329.416.611-.033.178-.87 4.368-4.733 6.418C10.385 20.747 10.302 20.767 10.219 20.767zM21.688 15.776c-2.738 0-3.798-1.18-3.85-1.242-.189-.218-.166-.549.052-.738.215-.186.543-.166.733.049.031.03 1.338 1.364 4.983.695.286-.054.559.138.609.422.054.284-.135.557-.419.609C23.002 15.716 22.302 15.776 21.688 15.776z"/><path fill="#2878C8" d="M14.885 7.297c1.317-1.359 3.297-2.216 5.347-2.749-.687-.959-1.798-1.909-3.591-2.274.089-.866.035-1.534-.125-1.766-.344-.497-2.027-.453-2.156.078-.042.172.199.79.325 1.543-.367.014-.754.044-1.162.101-.124-.663-.284-1.3-.483-1.597 0 0-1.346-.46-1.918.39-.159.235.315 1.08.503 1.646-.234.092-.457.197-.669.316C10.592 2.393 10.19 1.962 9.9 1.863 9.627 1.771 8.162 2.952 8.61 3.411 8.736 3.54 9.024 3.964 9.303 4.418c-1.438 1.871-1.831 4.709-1.226 7.594.232 1.104 4.353.877 4.505-.217C12.582 11.795 12.487 8.238 14.885 7.297zM7.823 4.958C7.106 3.6 6.507 2.425 6.507 2.425 4.846 1.711 3.585 3.53 3.585 3.53c-.298 2.344 2.318 6.342 3.397 7.876C6.617 8.988 6.917 6.732 7.823 4.958z"/><path fill="#374150" d="M24.69,9.217c-0.688,0.232-1.357,0.515-1.987,0.823c1.856,1.005,2.347,2.596,2.49,4.265c0.155,1.788,0,3.554-0.151,5.261c-0.103,1.162-0.207,2.361-0.207,3.527c-0.003,4.867-2.134,6.764-4.13,6.916c-0.135,0.01-0.272,0.016-0.414,0.016l0,0c-4.217,0-11.566-4.406-13.823-12.377c-0.499-1.764-0.336-3.343,0.418-4.724l-0.225-0.296c-0.118-0.156-0.478-0.636-0.934-1.313c-0.042,0.061-0.093,0.115-0.134,0.177c-1.262,1.908-1.564,4.207-0.872,6.653C7.22,26.962,15.513,31.84,20.291,31.84l0,0c0.19,0,0.374-0.008,0.553-0.021c2.676-0.207,5.803-2.614,5.805-8.725c0.002-1.087,0.099-2.196,0.201-3.37c0.157-1.785,0.319-3.63,0.151-5.577C26.862,12.531,26.401,10.631,24.69,9.217z"/><path fill="#2878C8" d="M27.968,4.646c0,0-7.172-0.161-11.134,2.322c-0.006,0.006-0.01,0.017-0.018,0.021c-0.476,0.302-0.885,0.633-1.229,0.988L15.44,8.131l-0.199,0.077c-1.711,0.671-1.682,3.531-1.68,3.56l-0.021,0.493c1.193,0.097,2.641,0.106,4.169-0.154c0,0,5.269-4.512,10.155-4.442C27.863,7.664,29.085,5.629,27.968,4.646z"/></svg>