<svg xmlns="http://www.w3.org/2000/svg" enable-background="new 0 0 32 32" viewBox="0 0 32 32"><path fill="#374150" d="M27.244,1.624C26.349,0.918,23.98,0.16,21.88,0.16c-0.802,0-1.499,0.112-2.071,0.329l-0.632,0.247C18.022,1.19,17.386,1.44,16,1.44c-1.387,0-2.022-0.25-3.177-0.704l-0.632-0.247C11.618,0.272,10.922,0.16,10.12,0.16c-2.098,0-4.466,0.758-5.364,1.464C3.82,2.362,2.08,3.735,2.08,7.255c0,3.575,1.676,6.673,2.676,8.522c0.145,0.268,0.279,0.513,0.389,0.728c0.165,0.381,0.132,2.322,0.104,3.883c-0.046,2.533-0.097,5.402,0.319,7.293c0.487,2.216,2.458,4.159,4.217,4.159c0.37,0,0.704-0.137,0.963-0.398c0.749-0.752,0.741-2.403,0.729-4.493c-0.004-0.722-0.007-1.47,0.023-2.192c0.182-4.202,1.487-5.917,4.5-5.917c3.014,0,4.317,1.715,4.5,5.917c0.031,0.723,0.027,1.471,0.023,2.192c-0.012,2.09-0.019,3.741,0.729,4.493c0.261,0.262,0.594,0.398,0.965,0.398c1.758,0,3.728-1.943,4.215-4.159c0.416-1.891,0.365-4.76,0.321-7.293c-0.027-1.561-0.062-3.502,0.101-3.877c0.112-0.221,0.246-0.466,0.391-0.733c1.001-1.85,2.676-4.947,2.676-8.522C29.92,3.735,28.18,2.362,27.244,1.624z M26.016,15.114c-0.149,0.276-0.286,0.528-0.402,0.756c-0.312,0.6-0.302,1.971-0.255,4.54c0.041,2.336,0.091,5.24-0.29,6.971c-0.359,1.644-1.858,3.054-2.84,3.065c-0.327-0.331-0.317-2.305-0.312-3.49c0.004-0.745,0.008-1.517-0.023-2.261c-0.087-1.983-0.315-7.251-5.894-7.251c-5.579,0-5.807,5.268-5.892,7.251c-0.033,0.744-0.029,1.516-0.025,2.261c0.006,1.202,0.018,3.218-0.298,3.49c-0.982,0-2.492-1.414-2.854-3.065c-0.381-1.73-0.331-4.635-0.288-6.971c0.044-2.569,0.054-3.94-0.255-4.54c-0.118-0.228-0.255-0.479-0.404-0.756c-1-1.847-2.51-4.639-2.51-7.859c0-2.843,1.292-3.861,2.146-4.537c0.601-0.474,2.653-1.161,4.499-1.161c0.632,0,1.16,0.079,1.574,0.235l0.619,0.242c1.182,0.466,2.036,0.8,3.688,0.8s2.506-0.334,3.688-0.8l0.619-0.242c0.414-0.156,0.941-0.235,1.574-0.235c1.847,0,3.898,0.688,4.5,1.161c0.854,0.676,2.146,1.694,2.146,4.537C28.526,10.476,27.016,13.268,26.016,15.114z"/><path fill="#2878C8" d="M24.976,4.497c-0.282-0.174-1.758-0.675-3.096-0.675c-0.52,0-0.742,0.079-0.768,0.089l-0.594,0.23C19.266,4.637,18.081,5.103,16,5.103s-3.266-0.466-4.519-0.961l-0.593-0.23c-0.023-0.01-0.248-0.089-0.768-0.089c-1.336,0-2.811,0.501-3.096,0.675C6.307,5.063,5.74,5.511,5.74,7.255c0,2.646,1.497,6.015,2.177,7.686c0.412,1.014-0.334,8.514,0.435,8.662c0.771,0.149,1.199-8.607,7.647-8.426c6.448-0.182,6.876,8.575,7.647,8.426c0.771-0.148,0.023-7.648,0.435-8.662c0.681-1.671,2.177-5.039,2.177-7.686C26.26,5.511,25.693,5.063,24.976,4.497z"/></svg>