<svg xmlns="http://www.w3.org/2000/svg" enable-background="new 0 0 32 32" viewBox="0 0 32 32"><path fill="#2878C8" d="M15.125 12.428c.012-.418-.008-.853-.035-1.297-.314-5.134-1.076-8.896-.445-8.896.818 0 1.723 5.432 2.209 9.813.096.876.479 2.317 1.113 3.475.574 1.048 1.023 2.425 1.023 3.708 0 2.355-1.336 3.39-2.984 3.39-1.646 0-2.982-1.034-2.982-3.39 0-1.165.326-2.434.855-3.418C14.197 15.223 15.084 13.998 15.125 12.428zM24.09 11.28c.008-.374-.008-.765-.031-1.161-.285-4.602-.967-7.971-.4-7.971.732 0 1.545 4.866 1.979 8.792.088.785.43 2.076.998 3.112.516.939.918 2.175.918 3.323 0 2.111-1.197 3.036-2.676 3.036-1.475 0-2.672-.925-2.672-3.036 0-1.044.293-2.181.768-3.062C23.256 13.784 24.053 12.687 24.09 11.28z"/><path fill="#374150" d="M29.773,11.277h-3.381c0.131,0.714,0.416,1.66,0.846,2.444c0.639,1.161,1.002,2.493,1.002,3.654c0,2.262-1.318,3.726-3.363,3.726c-2.041,0-3.361-1.464-3.361-3.726c0.002-1.152,0.311-2.386,0.85-3.389c0.049-0.09,0.113-0.196,0.182-0.318c0.33-0.557,0.82-1.395,0.85-2.392h-5.939c0.027,0.235,0.055,0.448,0.08,0.696c0.09,0.806,0.451,2.157,1.033,3.218c0.705,1.284,1.109,2.757,1.109,4.04c0,3.007-1.898,4.078-3.674,4.078s-3.672-1.071-3.672-4.078c0-1.271,0.344-2.637,0.939-3.744c0.053-0.1,0.123-0.217,0.201-0.353c0.371-0.63,0.934-1.583,0.961-2.725c0.01-0.365-0.008-0.746-0.029-1.133H8.633c0.133,0.714,0.418,1.66,0.848,2.444c0.639,1.161,1.004,2.493,1.004,3.654c0,2.262-1.32,3.726-3.363,3.726S3.76,19.638,3.76,17.376c0-1.152,0.311-2.386,0.848-3.389c0.051-0.09,0.113-0.196,0.184-0.318c0.328-0.557,0.818-1.395,0.85-2.392H2.227c-1.14,0-2.066,0.926-2.066,2.065v11.922c0,1.042,0.766,2.14,1.744,2.498C2.139,27.849,7.709,29.852,16,29.852s13.861-2.003,14.094-2.089c0.979-0.358,1.746-1.456,1.746-2.498V13.343C31.84,12.203,30.912,11.277,29.773,11.277z M30.463,25.265c0,0.47-0.4,1.043-0.842,1.205c-0.055,0.02-5.572,2.005-13.621,2.005c-8.029,0-13.566-1.985-13.621-2.005c-0.441-0.162-0.842-0.735-0.842-1.205v-6.139h1.244c0.646,2.192,2.49,3.216,4.34,3.216c1.609,0,3.213-0.779,4.033-2.421c0.299,3.175,2.572,4.629,4.852,4.629c2.277,0,4.545-1.448,4.852-4.606c0.824,1.626,2.42,2.398,4.02,2.398c1.771,0,3.541-0.931,4.26-2.93h1.326V25.265z"/><path fill="#2878C8" d="M6.33,11.28c0.01-0.374-0.006-0.765-0.029-1.161C6.018,5.518,5.334,2.148,5.902,2.148c0.73,0,1.543,4.866,1.977,8.792c0.088,0.785,0.43,2.076,0.998,3.112c0.518,0.939,0.918,2.175,0.918,3.323c0,2.111-1.197,3.036-2.674,3.036s-2.674-0.925-2.674-3.036c0-1.044,0.295-2.181,0.768-3.062C5.5,13.784,6.295,12.687,6.33,11.28z"/><circle cx="3.816" cy="23.424" r=".803" fill="#374150"/><circle cx="6.68" cy="25.537" r=".965" fill="#374150"/><circle cx="10.002" cy="23.867" r=".965" fill="#374150"/><circle cx="14.631" cy="26.693" r=".803" fill="#374150"/><circle cx="22.204" cy="23.424" r=".804" fill="#374150"/><circle cx="28.815" cy="22.621" r=".804" fill="#374150"/><circle cx="25.682" cy="25.192" r=".965" fill="#374150"/><circle cx="18.991" cy="26.501" r=".964" fill="#374150"/></svg>