<svg xmlns="http://www.w3.org/2000/svg" enable-background="new 0 0 32 32" viewBox="0 0 32 32"><path fill="#374150" d="M2.434,31.832c-0.598,0-1.191-0.115-1.766-0.346L0.16,31.285v-0.549c0-7.642,4.959-9.062,6.24-9.299c1.602-1.4,3.045-1.799,4.322-2.152c2.067-0.57,3.699-1.021,5.715-5.88c1.119-2.705,1.958-4.528,2.362-5.385c-2.527-2.458-2.349-6.41-2.34-6.588l0.02-0.349l0.267-0.226c0.541-0.459,1.135-0.69,1.766-0.69c1.039,0,1.756,0.644,1.835,0.717l0.292,0.275L20.598,1.56c-0.012,0.106-0.215,2.604,2.236,4.048c0.599-0.188,1.857-0.524,3.234-0.524c3.098,0,5.025,1.683,5.426,4.737c0.847,6.446,0.91,13.813-9.139,19.675c-2.374,1.384-4.501,2.059-6.502,2.059h-0.002c-3.691,0-5.99-2.305-7.838-4.157c-0.281-0.284-0.555-0.559-0.821-0.812C6.427,26.769,4.65,27.54,4.65,30.736v0.493l-0.438,0.224C4.137,31.492,3.453,31.832,2.434,31.832z M1.788,30.145c0.452,0.101,0.945,0.075,1.263,0.006c0.298-4.891,4.303-5.229,4.345-5.232l0.343-0.023l0.255,0.23c0.375,0.338,0.762,0.725,1.165,1.129c1.722,1.727,3.673,3.684,6.693,3.684l0,0c1.684,0,3.598-0.619,5.689-1.839c9.201-5.366,9.199-11.607,8.352-18.067c-0.295-2.241-1.547-3.332-3.824-3.332c-1.568,0-3.011,0.538-3.024,0.544l-0.337,0.125l-0.318-0.162c-2.987-1.529-3.384-4.192-3.413-5.308c-0.229-0.11-0.578-0.166-0.901,0c0.029,1.006,0.289,3.767,2.221,5.282l0.516,0.406l-0.292,0.59c-0.009,0.02-1.036,2.102-2.589,5.848c-2.314,5.588-4.482,6.186-6.777,6.819c-1.263,0.35-2.455,0.679-3.848,1.951L7.1,22.982l-0.276,0.023C6.628,23.022,2.045,23.514,1.788,30.145z"/><path fill="#2878C8" d="M18.744,16c0,0-2.102,4.271-5.984,5.404c-3.879,1.132-4.202,1.616-4.365,2.102c0,0,3.45,5.335,7.168,5.335c2.76,0,7.557-2.03,11.209-6.421c1.834-2.201,2.426-6.42,2.426-6.42S22.3,17.063,18.744,16z M13.063,24.314c-0.357,0-0.646-0.29-0.646-0.647c0-0.356,0.288-0.646,0.646-0.646s0.646,0.29,0.646,0.646C13.709,24.024,13.42,24.314,13.063,24.314z M17.023,27.18c-0.482,0-0.875-0.39-0.875-0.872c0-0.481,0.393-0.873,0.875-0.873c0.48,0,0.873,0.392,0.873,0.873C17.896,26.79,17.504,27.18,17.023,27.18z M18.798,23.067c-0.358,0-0.647-0.29-0.647-0.647c0-0.356,0.289-0.646,0.647-0.646c0.356,0,0.646,0.29,0.646,0.646C19.443,22.777,19.154,23.067,18.798,23.067z M20.718,18.926c-0.357,0-0.647-0.29-0.647-0.646c0-0.358,0.29-0.648,0.647-0.648c0.356,0,0.646,0.29,0.646,0.648C21.363,18.636,21.074,18.926,20.718,18.926z M23.512,23.067c-0.357,0-0.646-0.29-0.646-0.647c0-0.356,0.288-0.646,0.646-0.646s0.646,0.29,0.646,0.646C24.158,22.777,23.869,23.067,23.512,23.067z M25.281,19.906c-0.483,0-0.874-0.391-0.874-0.872c0-0.483,0.391-0.874,0.874-0.874c0.481,0,0.872,0.391,0.872,0.874C26.153,19.516,25.763,19.906,25.281,19.906z"/></svg>