<svg xmlns="http://www.w3.org/2000/svg" enable-background="new 0 0 32 32" viewBox="0 0 32 32"><path fill="#2878C8" d="M16.599 25.256c.047 1.501.104 3.997-.015 4.872 0 0 .651 1.191 2.925.55 0 0 .788-3.021.422-6.282-1.413.47-2.656.736-3.331.857C16.601 25.254 16.6 25.255 16.599 25.256zM16.085 2.298c-1.16-.183-2.386.521-2.386.521-.341.489-.206 2.345-.094 3.433 1.181-.08 2.464-.147 3.58-.178C16.521 4.35 16.085 2.298 16.085 2.298zM22.905 1.687c0 0-1.003-.946-3.03-.366 0 0 .195 2.798-.288 4.748 1.021.019 2.159.058 3.221.103C22.987 4.784 23.262 2.197 22.905 1.687z"/><path fill="#374150" d="M31.316,8.912c-0.572-0.705-2.615-1.116-5.051-1.352c-1.112-0.108-5.386-0.317-7.919-0.317c-2.532,0-6.942,0.329-8.012,0.502C6.293,8.4,2.748,9.919,1.075,13.387c-1.619,3.358-0.918,11.757,0.76,14.701c0.451,0.791,0.988,1.217,1.597,1.27c0.151,0.012,0.294,0.018,0.431,0.018c0.203,0,0.391-0.015,0.568-0.041c0.383,0.122,1.224,0.344,2.363,0.344c2.326,0,5.865-0.936,9.134-5.519c0.035-0.004,3.593-0.49,6.657-2.191c4.648-2.582,7.729-6.507,8.764-9.161C32.015,11.105,32.003,9.758,31.316,8.912z M6.57,28.235c0.125-0.11,0.253-0.226,0.383-0.343c1.145-1.041,2.659-2.407,6.792-3.327C10.994,27.749,8.281,28.303,6.57,28.235z M16.351,22.597c-0.153,0.027-0.302,0.062-0.457,0.085c-6.419,0.936-8.531,2.855-9.927,4.124c-0.781,0.712-1.212,1.104-2.104,1.104c-0.097,0-0.199-0.005-0.304-0.014c-0.06-0.015-0.302-0.196-0.597-0.818c-1.346-2.827-1.884-10.322-0.565-13.056c2.131-4.423,8.206-5.178,13.976-5.28C16.839,10.723,18.124,17.258,16.351,22.597z M18.063,22.209c-0.214,0.06-0.429,0.123-0.649,0.175c1.578-5.337,0.452-11.438-0.06-13.653c0.367-0.002,0.737-0.006,1.088-0.006C18.819,10.578,19.852,16.842,18.063,22.209z M29.984,12.275c-1.21,3.101-5.188,7.601-10.801,9.579c1.545-5.296,0.65-11.062,0.236-13.125c7.843,0.052,10.439,0.818,10.759,1.107C30.425,10.142,30.504,10.942,29.984,12.275z"/></svg>