<svg xmlns="http://www.w3.org/2000/svg" enable-background="new 0 0 32 32" viewBox="0 0 32 32"><path fill="#374150" d="M8.729 12.308c-.264.371-.47.664-.888.664H7.745l-.103-.028c-.174-.049-.589-.236-.685-.888-.073-.502.066-1.279.499-1.985C5.194 9.663 4.935 9.29 4.812 9.116 4.522 8.7 4.588 8.369 4.694 8.165c.249-.48.799-.48 1.162-.48.152 0 .336.005.555.01.296.008.655.018 1.081.018 0 0 .31-.002.46-.004-1.109-1.93-.939-2.462-.88-2.655.081-.251.263-.451.503-.547L7.7 4.456l.177-.008c.513 0 .804.396 1.288 1.049.289.392.658.877 1.113 1.354.3-.567.709-1.087 1.16-1.65 1.031-1.289.246-5.914-4.809-4.897-3.032.611-7.02 3.02-6.184 10.233.435 3.754 1.727 5.704 3.777 6.614 1.892.837 4.508.822 5.867-.229 2.35-1.814.992-3.904.191-6.077C9.586 11.105 9.041 11.871 8.729 12.308zM23.271 12.308c.263.371.469.664.887.664h.1l.102-.028c.172-.049.588-.236.684-.888.072-.502-.064-1.279-.5-1.985 2.263-.409 2.523-.782 2.646-.956.292-.416.226-.747.12-.951-.25-.48-.801-.48-1.164-.48-.152 0-.336.005-.553.01-.297.008-.658.018-1.083.018 0 0-.308-.002-.46-.004 1.109-1.93.941-2.462.879-2.655-.078-.251-.263-.451-.502-.547l-.124-.05-.178-.008c-.511 0-.803.396-1.288 1.049-.29.392-.659.877-1.113 1.354-.299-.567-.71-1.087-1.16-1.65-1.031-1.289-.246-5.914 4.809-4.897 3.031.611 7.02 3.02 6.184 10.233-.434 3.754-1.727 5.704-3.778 6.614-1.892.837-4.507.822-5.866-.229-2.35-1.814-.99-3.904-.191-6.077C22.415 11.105 22.959 11.871 23.271 12.308z"/><path fill="#2878C8" d="M22.823 8.363c0 0 1.924-2.974 1.342-3.208-.357-.142-1.119 1.663-2.813 2.989-.852.666-1.975 1.081-3.324 1.361V4.165h-1.444v13.912c.409.013.901.046 1.444.114v-7.307c.943-.44 2.33-.951 3.453-.813 1.611.196 2.496 2.255 2.684 2.202.408-.116.234-1.866-1.05-2.683 0 0 3.198-.445 3.5-.875C27.023 8.13 25.917 8.539 22.823 8.363zM13.974 9.506c-1.35-.28-2.473-.695-3.324-1.361C8.956 6.818 8.192 5.014 7.835 5.156 7.253 5.39 9.177 8.363 9.177 8.363c-3.094.175-4.2-.233-3.791.35.301.43 3.498.875 3.498.875-1.281.817-1.457 2.567-1.049 2.683.188.054 1.072-2.005 2.684-2.202 1.125-.138 2.51.374 3.455.813v7.307c.543-.067 1.032-.101 1.442-.114V4.165h-1.442V9.506z"/><path fill="#374150" d="M23.353,23.088c-0.026-3.877-5.318-4.326-7.353-4.326c-2.032,0-7.327,0.449-7.354,4.326c-0.02,3.08,3.827,4.916,6.147,5.459v3.293h2.414v-3.293C19.528,28.004,23.374,26.168,23.353,23.088z M20.739,24.755c-1.391,1.4-3.985,2.155-4.739,2.155c-0.755,0-3.347-0.755-4.737-2.155c-0.517-0.519-0.771-1.033-0.795-1.567h11.064C21.509,23.722,21.255,24.236,20.739,24.755z"/></svg>