<svg xmlns="http://www.w3.org/2000/svg" enable-background="new 0 0 32 32" viewBox="0 0 32 32"><path fill="#2878C8" d="M19.159 6.834l-.752-.367-.042.06c-.238.341-.479.624-.715.841-.231.213-.498.381-.794.497-.296.116-.64.174-1.019.174-.327 0-.528-.058-.563-.156-.016-.057-.031-.249-.031-.836V6.221h.054c.178 0 .331.014.456.04.11.022.188.068.236.14.106.157.178.39.217.693l.008.075h.837V4.303h-.847v.086c0 .337-.045.578-.132.711C16 5.198 15.84 5.248 15.596 5.248h-.352V4.481c0-.325.044-.431.071-.468.026-.037.149-.122.704-.122.845 0 1.559.421 2.121 1.249l.04.062.733-.358-.917-1.929h-5.159V3.79l.271.046c.253.042.33.108.355.144.031.047.07.147.07.356v3.021c0 .204-.01.354-.027.443-.016.074-.053.132-.114.178C13.33 8.028 13.215 8.069 13.059 8.1l-.221.038v.871h5.305L19.159 6.834zM6.477 14.265v.726l.078.005c.22.016.322.051.371.077.062.034.098.078.111.135.02.074.029.2.029.378v2.199c0 .146-.004.253-.012.319-.008.055-.023.102-.05.141-.025.035-.067.063-.126.081-.067.023-.178.039-.324.05l-.078.006v.721h2.638v-.728H8.959C8.662 18.363 8.55 18.294 8.51 18.24c-.023-.036-.066-.142-.066-.456v-.806h.002c.021-.002.051-.002.087-.002.18 0 .312.021.391.062.071.039.12.096.147.175.03.094.063.262.092.501l.01.072h.662V15.4h-.66l-.012.072c-.021.166-.038.283-.054.349-.012.058-.038.121-.079.188-.035.06-.082.095-.146.109-.08.017-.188.026-.318.026H8.443v-.619c0-.145.01-.25.029-.313.014-.046.046-.078.102-.103.047-.02.144-.043.339-.043.243 0 .466.039.661.113.195.075.373.184.53.323.16.143.319.322.474.535l.043.056.612-.299-.702-1.53H6.477zM25.498 14.476c-.124-.063-.262-.112-.41-.144-.146-.031-.292-.05-.432-.057-.139-.007-.305-.011-.498-.011h-2.464v.723l.075.008c.219.023.323.059.369.083.059.031.094.072.106.126.012.05.025.159.025.388v2.193c0 .185-.008.315-.027.389-.015.057-.048.098-.106.128-.069.036-.191.06-.365.074l-.077.006v.721h2.498v-.721l-.077-.006c-.197-.016-.294-.048-.34-.074-.057-.031-.088-.072-.102-.129-.016-.073-.025-.203-.025-.387v-.572h.504c.273 0 .531-.02.764-.058.235-.04.456-.112.653-.216.204-.107.367-.261.489-.458.119-.197.18-.449.18-.746 0-.269-.066-.519-.195-.745C25.914 14.764 25.729 14.59 25.498 14.476zM24.695 16.032c-.047.098-.11.176-.197.238-.141.1-.393.149-.75.149h-.1v-1.005c.002-.037.006-.079.008-.124.004-.04.01-.076.018-.108.006-.022.016-.04.02-.044.043-.031.138-.07.354-.07.215 0 .385.058.521.177.132.116.195.274.195.485C24.763 15.832 24.74 15.934 24.695 16.032zM3.984 24.939L3.48 26.246l.551.222.036-.059c.089-.149.161-.263.215-.337C4.332 26 4.391 25.936 4.454 25.88c.185-.169.364-.256.534-.256.01 0 .02 0 .025.001.002.012.002.03.002.055v2.2c0 .272-.035.35-.049.371-.047.063-.164.101-.338.109H4.478v.628h2.247v-.628H6.578c-.078-.004-.151-.014-.221-.034-.057-.016-.098-.04-.122-.074-.016-.021-.05-.1-.05-.372v-2.2c0-.026.002-.043.002-.055.007-.001.015-.001.026-.001.171 0 .351.087.534.257.065.059.129.131.188.216.062.089.127.193.195.312l.036.06.556-.222-.506-1.307H3.984zM17.537 25.397c-.197-.179-.432-.318-.69-.413-.532-.193-1.17-.189-1.694.013-.268.104-.504.254-.701.447s-.352.425-.463.69c-.109.266-.164.559-.164.873 0 .205.021.399.068.575.044.179.115.349.211.507.094.158.216.305.363.438.135.124.281.229.438.313.157.084.321.147.489.187.168.04.352.059.547.059.308 0 .602-.054.875-.16.271-.106.514-.261.717-.46.205-.199.363-.437.474-.708.112-.27.167-.567.167-.882 0-.304-.057-.584-.169-.833C17.893 25.793 17.736 25.577 17.537 25.397zM16.73 27.843c-.079.158-.186.283-.311.373-.126.088-.266.132-.428.132-.168 0-.304-.037-.418-.113-.115-.077-.209-.182-.28-.313-.073-.135-.126-.284-.159-.443-.032-.161-.049-.325-.049-.487 0-.169.019-.34.053-.509.035-.165.094-.32.171-.459.075-.135.176-.244.3-.325.119-.079.265-.119.43-.119.16 0 .295.038.405.113.112.077.203.181.271.31.072.134.122.28.151.435.03.158.046.316.046.473C16.912 27.284 16.851 27.598 16.73 27.843zM27.916 27.411c-.068.208-.174.382-.309.517-.136.135-.3.238-.487.303-.19.067-.398.101-.611.101l-.274-.027 2.08-2.87.021-.032-.129-.463h-2.864l-.62 1.364.539.232.035-.067c.092-.185.209-.343.342-.473.13-.126.282-.224.451-.29.17-.065.361-.099.563-.1l.197.014-2.113 2.901.123.467h3.104l.557-1.464-.578-.188L27.916 27.411z"/><path fill="#374150" d="M29.139,19.611c0.332-0.768,0.476-1.586,0.586-2.301c0.129-0.83,0.182-1.897,0.182-1.897s0.296,0,0.466,0c0.308,0,0.536-0.19,0.536-0.455c0-0.476,0-1.195,0-1.501c0-0.478-0.002-0.877-0.775-0.877c-1.193,0-2.245-0.359-2.738-0.468c-5.268-1.156-7.979,0.218-8.632,0.468c-0.651,0.25-1.956,0.91-2.763,0.91c-0.809,0-2.111-0.66-2.766-0.91c-0.653-0.25-3.364-1.625-8.631-0.468C4.11,12.221,3.059,12.58,1.865,12.58c-0.773,0-0.775,0.399-0.775,0.877c0,0.306,0,1.025,0,1.501c0,0.265,0.229,0.455,0.535,0.455c0.17,0,0.467,0,0.467,0s0.052,1.067,0.182,1.897c0.109,0.714,0.253,1.533,0.586,2.301c-0.941,0.157-2.707,0.562-2.699,1.396c0.006,0.866,1.022,2.754,2.318,2.241c0.887-0.35,1.9-1.071,2.453-1.492c0.748,0.344,1.711,0.557,2.982,0.557c3.351,0,5.845-1.95,6.883-5.463c0.189-0.641,0.6-0.631,0.6-0.631H16h0.602c0,0,0.41-0.009,0.6,0.631c1.037,3.514,3.532,5.463,6.883,5.463c1.271,0,2.235-0.212,2.982-0.557c0.553,0.42,1.565,1.142,2.453,1.492c1.295,0.513,2.313-1.375,2.32-2.241C31.846,20.173,30.08,19.768,29.139,19.611z M8.188,21.007c-3.304,0-4.367-1.523-4.367-4.457c0-2.343,0.328-3.548,4.726-3.548c4.396,0,4.964,1.32,4.964,3.138C13.51,18.301,11.49,21.007,8.188,21.007z M23.812,21.007c-3.305,0-5.323-2.706-5.323-4.867c0-1.818,0.568-3.138,4.965-3.138c4.396,0,4.725,1.206,4.725,3.548C28.178,19.483,27.114,21.007,23.812,21.007z"/></svg>