<svg xmlns="http://www.w3.org/2000/svg" enable-background="new 0 0 32 32" viewBox="0 0 32 32"><path fill="#374150" d="M5.789 14.598c.063.245 1.504-.707 2.809-.909 1.004 1.302 2.379 2.025 3.979 2.025 1.602 0 2.977-.723 3.98-2.025 1.303.203 2.746 1.153 2.807.909.018-.068-.553-1.373-.77-2.732-.09-.553-.115-1.11-.119-1.582.34-.365.547-.894.594-1.603.055-.797-.186-1.303-.482-1.624.045-.995.084-6.896-6.01-6.896-6.09 0-6.053 5.902-6.01 6.896-.295.321-.535.827-.48 1.624.047.709.252 1.237.596 1.603-.004.472-.033 1.03-.121 1.583C6.344 13.225 5.773 14.529 5.789 14.598zM12.576 14.721c-3.107 0-4.162-3.169-4.473-4.533l-.064-.29L7.752 9.82C7.57 9.77 7.146 9.652 7.074 8.614 7.055 8.3 7.096 8.083 7.17 7.923c.082.103.158.242.221.449.254.864.623.456.623.456-.211-1.977 2.576-4.023 4.563-4.023 1.988 0 3.125-.553 3.125-.553s1.648 2.6 1.439 4.576c0 0 .371.408.623-.456.061-.208.139-.346.221-.449.072.159.113.376.094.69C18.008 9.652 17.582 9.77 17.4 9.82l-.285.079-.066.29C16.74 11.552 15.686 14.721 12.576 14.721zM19.18 16.884c-.307.22-.623.636-.57 1.408.059.852.416 1.264.785 1.46.578 2.199 1.99 3.502 3.816 3.502s3.238-1.303 3.816-3.502c.369-.196.729-.608.785-1.46.053-.771-.264-1.188-.57-1.408-.027-.253-.063-.485-.109-.705-.611-2.835-3.568-2.917-3.941-2.917-.334 0-3.291.082-3.902 2.917C19.244 16.399 19.207 16.631 19.18 16.884zM19.846 17.642l.279-.119.021-.301c.023-.308.063-.588.113-.833.375-1.743 2.008-2.062 2.693-2.12.322.65.525 1.348.439 1.504 0 0-.039.017-.145.009-.074-.005-.137-.013-.191-.021.096-.085.158-.21.158-.35 0-.257-.209-.465-.467-.465-.365 0-.846.408-.863.868-.014.361.197.811 1.289.896.045.003.086.005.127.005.508 0 .756-.262.861-.427.316-.499.109-1.303-.15-1.937.77.172 1.852.659 2.15 2.038.053.245.09.524.111.833l.023.301.279.119c.088.039.277.119.244.583-.039.601-.254.661-.348.687l-.285.079-.066.29c-.203.897-.895 2.982-2.91 2.982-2.018 0-2.707-2.085-2.91-2.982l-.066-.29-.285-.079c-.094-.026-.307-.085-.348-.687C19.568 17.761 19.756 17.681 19.846 17.642z"/><path fill="#374150" d="M15.941,24.427c0.961-1.354,3.029-2.151,3.814-2.415c-0.373-0.527-0.684-1.144-0.895-1.863c-0.4-0.296-0.805-0.835-0.871-1.814c-0.051-0.722,0.162-1.338,0.602-1.766c0.025-0.181,0.057-0.354,0.092-0.521c0.037-0.17,0.084-0.326,0.135-0.479c-1.057-0.47-1.896-0.712-1.896-0.712c-0.932,2.378-2.768,2.709-4.346,2.709s-3.412-0.332-4.342-2.709c0,0-3.984,1.137-5.535,3.323c-0.858,1.207-1.293,3.49-1.293,4.73c0,0-0.41,5.672-0.325,8.93h2.005c0.439-4.189,1.719-6.167,1.719-6.167s-0.893-0.621-1.086-1.746c-0.498-2.884,1.434-3.879,1.434-3.879s-1.869,3.585,0.637,5.206c0,0-1.352,2.203-1.352,6.585h8.139h2.363c-0.154-1.572-0.004-3.764,0.004-3.858C14.941,27.116,15.25,25.398,15.941,24.427z"/><path fill="#2878C8" d="M30.859,28.025c0-0.849-0.297-2.412-0.885-3.239c-1.061-1.496-3.789-2.275-3.789-2.275c0.297,2.972-1.846,2.436-2.975,1.633c-1.131,0.803-3.271,1.339-2.977-1.633c0,0-2.725,0.779-3.787,2.275c-0.588,0.827-0.885,2.39-0.885,3.239c0,0-0.162,2.276,0,3.815h1.705c-0.004-1.455,0.139-3.16,0.723-4.247c0,0-0.133,2.13,0.131,4.247h5.09h5.09c0.264-2.117,0.129-4.247,0.129-4.247c0.586,1.087,0.729,2.792,0.725,4.247h1.705C31.021,30.301,30.859,28.025,30.859,28.025z M23.211,30.535c-0.352,0-0.637-0.285-0.637-0.636s0.285-0.636,0.637-0.636c0.35,0,0.637,0.285,0.637,0.636S23.561,30.535,23.211,30.535z M23.211,27.624c-0.352,0-0.637-0.285-0.637-0.636c0-0.352,0.285-0.636,0.637-0.636c0.35,0,0.637,0.284,0.637,0.636C23.848,27.339,23.561,27.624,23.211,27.624z"/></svg>