<svg xmlns="http://www.w3.org/2000/svg" enable-background="new 0 0 32 32" viewBox="0 0 32 32"><path fill="#374150" d="M25.015,1.975c-2.016-1.17-4.45-1.814-6.855-1.814c-4.695,0-8.723,2.291-11.047,6.287c-1.555,2.676-1.686,4.133-1.791,5.305c-0.104,1.173-0.174,1.948-1.855,3.766c-1.232,1.328-1.675,2.303-1.441,3.156c0.277,1.004,1.348,1.319,2.209,1.572c0.104,0.031,0.209,0.063,0.309,0.094c0.13,1.93,0.66,7.135,2.661,8.219c0.425,0.229,0.911,0.347,1.446,0.347c0.849,0,1.701-0.296,2.389-0.534c0.346-0.119,0.703-0.243,0.951-0.281c0.354,1.646,0.817,3.148,0.837,3.213l0.166,0.537h13.966l-0.381-1.026c-0.01-0.026-0.939-2.558-0.939-4.517c0-1.039,0.852-2.914,1.673-4.729c0.665-1.473,1.355-2.995,1.655-4.22l0.135-0.547C30.052,13,31.819,5.92,25.015,1.975z M27.624,16.432l-0.138,0.553c-0.267,1.089-0.928,2.545-1.565,3.955c-0.929,2.051-1.807,3.99-1.807,5.357c0,1.408,0.395,3.005,0.698,4.02H14.124c-0.173-0.6-0.451-1.624-0.674-2.674c-0.143-0.684-0.644-1.092-1.342-1.092c-0.472,0-0.98,0.178-1.57,0.381c-0.896,0.311-1.981,0.627-2.609,0.285c-0.973-0.525-1.738-4.281-1.892-7.457l-0.022-0.469L5.587,19.1c-0.285-0.127-0.609-0.223-0.923-0.314c-0.335-0.1-1.117-0.329-1.169-0.517c0-0.004-0.102-0.431,1.088-1.716c2.036-2.197,2.139-3.342,2.256-4.665c0.098-1.075,0.205-2.292,1.592-4.674c2.044-3.515,5.59-5.53,9.729-5.53c2.141,0,4.304,0.572,6.092,1.609C30.062,6.665,28.595,12.542,27.624,16.432z"/><path fill="#2878C8" d="M24.791,9.225c0,0-1.304-0.982-2.713-1.79c-0.024,0.13-0.05,0.261-0.06,0.409c0,0.043,0.012,0.125,0.021,0.221c0.05,0.455,0.127,1.145-0.142,1.723c-0.472,1.014-1.683,1.455-2.695,0.98c-1.015-0.473-1.454-1.682-0.982-2.695c0.269-0.576,0.845-0.961,1.228-1.216c0.082-0.054,0.149-0.097,0.191-0.134c0.104-0.098,0.186-0.199,0.268-0.301c-1.523-0.56-3.115-0.927-3.115-0.927c-0.355-0.083-0.773,0.122-0.928,0.452l-1.428,3.061c-0.133-0.11-0.259-0.226-0.373-0.344c-0.215-0.221-0.667-1.158-1.307-1.455c-0.77-0.36-1.685-0.027-2.043,0.742c-0.359,0.77-0.026,1.684,0.743,2.041c0.64,0.299,1.649,0.044,1.955,0.066c0.164,0.012,0.335,0.035,0.505,0.065l-1.404,3.009c-0.154,0.332-0.041,0.783,0.25,1.004c0,0,1.614,1.216,3.191,2.053c-0.082,0.094-0.166,0.18-0.251,0.262c-0.22,0.215-1.156,0.667-1.456,1.307c-0.357,0.77-0.025,1.684,0.742,2.042c0.77,0.36,1.685,0.027,2.045-0.743c0.297-0.639,0.042-1.648,0.063-1.954c0.01-0.119,0.021-0.239,0.039-0.362c1.657,0.672,3.625,1.126,3.625,1.126c0.356,0.081,0.773-0.122,0.929-0.454l1.677-3.593l1.674-3.593C25.195,9.896,25.083,9.444,24.791,9.225z"/></svg>